<svg xmlns="http://www.w3.org/2000/svg" viewBox="0 0 300 200"><rect width="300" height="200" fill="#b22234"/><g fill="#fff"><rect y="15.384615384615385" width="300" height="15.384615384615385"/><rect y="46.15384615384615" width="300" height="15.384615384615385"/><rect y="76.92307692307692" width="300" height="15.384615384615385"/><rect y="107.6923076923077" width="300" height="15.384615384615385"/><rect y="138.46153846153845" width="300" height="15.384615384615385"/><rect y="169.23076923076923" width="300" height="15.384615384615385"/></g><rect width="120" height="107.7" fill="#3c3b6e"/><g fill="#fff"><circle cx="12" cy="10" r="3"/><circle cx="30" cy="10" r="3"/><circle cx="48" cy="10" r="3"/><circle cx="66" cy="10" r="3"/><circle cx="84" cy="10" r="3"/><circle cx="102" cy="10" r="3"/><circle cx="12" cy="26" r="3"/><circle cx="30" cy="26" r="3"/><circle cx="48" cy="26" r="3"/><circle cx="66" cy="26" r="3"/><circle cx="84" cy="26" r="3"/><circle cx="102" cy="26" r="3"/><circle cx="12" cy="42" r="3"/><circle cx="30" cy="42" r="3"/><circle cx="48" cy="42" r="3"/><circle cx="66" cy="42" r="3"/><circle cx="84" cy="42" r="3"/><circle cx="102" cy="42" r="3"/><circle cx="12" cy="58" r="3"/><circle cx="30" cy="58" r="3"/><circle cx="48" cy="58" r="3"/><circle cx="66" cy="58" r="3"/><circle cx="84" cy="58" r="3"/><circle cx="102" cy="58" r="3"/><circle cx="12" cy="74" r="3"/><circle cx="30" cy="74" r="3"/><circle cx="48" cy="74" r="3"/><circle cx="66" cy="74" r="3"/><circle cx="84" cy="74" r="3"/><circle cx="102" cy="74" r="3"/></g></svg>